<svg width="62" height="72" viewBox="0 0 67 72" fill="none" xmlns="http://www.w3.org/2000/svg">
<path fill-rule="evenodd" clip-rule="evenodd" d="M26.1875 51.6875H30.75C31.8333 51.6875 32.7292 51.3333 33.4375 50.625C34.1458 49.9167 34.5 49.0208 34.5 47.9375V34.3125C34.5 33.2292 34.1458 32.3333 33.4375 31.625C32.7292 30.9167 31.8333 30.5625 30.75 30.5625H26.1875C25.1042 30.5625 24.2083 30.9167 23.5 31.625C22.7917 32.3333 22.4375 33.2292 22.4375 34.3125V47.9375C22.4375 49.0208 22.7917 49.9167 23.5 50.625C24.2083 51.3333 25.1042 51.6875 26.1875 51.6875ZM26.1875 34.3125V47.9375H30.75V34.3125H26.1875Z" fill="#545162"/>
<path d="M19 51.6875H15.25V34.3125H12.125V30.5625H19V51.6875Z" fill="#545162"/>
<path fill-rule="evenodd" clip-rule="evenodd" d="M41.75 51.6875H46.3125C47.3958 51.6875 48.2917 51.3333 49 50.625C49.7083 49.9167 50.0625 49.0208 50.0625 47.9375V34.3125C50.0625 33.2292 49.7083 32.3333 49 31.625C48.2917 30.9167 47.3958 30.5625 46.3125 30.5625H41.75C40.6667 30.5625 39.7708 30.9167 39.0625 31.625C38.3542 32.3333 38 33.2292 38 34.3125V47.9375C38 49.0208 38.3542 49.9167 39.0625 50.625C39.7708 51.3333 40.6667 51.6875 41.75 51.6875ZM41.75 34.3125V47.9375H46.3125V34.3125H41.75Z" fill="#545162"/>
<path d="M20.6667 5.14899V0H41.3333V5.14899H20.6667ZM31 72C26.7519 72 22.7477 71.1847 18.9875 69.5542C15.2273 67.9237 11.9407 65.7068 9.12778 62.9035C6.31481 60.1001 4.09028 56.8248 2.45417 53.0775C0.818056 49.3302 0 45.3397 0 41.1061C0 36.8725 0.818056 32.882 2.45417 29.1347C4.09028 25.3874 6.31481 22.112 9.12778 19.3087C11.9407 16.5054 15.2273 14.2884 18.9875 12.6579C22.7477 11.0274 26.7519 10.2122 31 10.2122C34.8463 10.2122 38.463 10.8558 41.85 12.143C45.237 13.4303 48.2509 15.2181 50.8917 17.5066L55.2833 13.1299L58.9 16.7342L54.5083 21.1108C56.575 23.3993 58.3403 26.174 59.8042 29.435C61.2681 32.6961 62 36.5864 62 41.1061C62 45.3397 61.1819 49.3302 59.5458 53.0775C57.9097 56.8248 55.6852 60.1001 52.8722 62.9035C50.0593 65.7068 46.7727 67.9237 43.0125 69.5542C39.2523 71.1847 35.2481 72 31 72ZM31 66.851C38.1759 66.851 44.2755 64.348 49.2986 59.3421C54.3218 54.3361 56.8333 48.2575 56.8333 41.1061C56.8333 33.9547 54.3218 27.876 49.2986 22.8701C44.2755 17.8641 38.1759 15.3611 31 15.3611C23.8241 15.3611 17.7245 17.8641 12.7014 22.8701C7.67824 27.876 5.16667 33.9547 5.16667 41.1061C5.16667 48.2575 7.67824 54.3361 12.7014 59.3421C17.7245 64.348 23.8241 66.851 31 66.851Z" fill="#545162"/>
</svg>
