<svg width="36" height="44" viewBox="0 0 36 44" fill="none" xmlns="http://www.w3.org/2000/svg">
<path d="M4 27.8V30.5C4 30.925 3.85625 31.2813 3.56875 31.5688C3.28125 31.8563 2.925 32 2.5 32H1.5C1.075 32 0.71875 31.8563 0.43125 31.5688C0.14375 31.2813 0 30.925 0 30.5V14.3L4.25 1.5C4.35 1.03333 4.60667 0.666667 5.02 0.4C5.43333 0.133333 5.89333 0 6.4 0H29.6C30.1067 0 30.5667 0.133333 30.98 0.4C31.3933 0.666667 31.65 1.03333 31.75 1.5L36 14.3V30.5C36 30.925 35.8563 31.2813 35.5688 31.5688C35.2813 31.8563 34.925 32 34.5 32H33.45C33.025 32 32.6688 31.8563 32.3813 31.5688C32.0938 31.2813 31.95 30.925 31.95 30.5V27.8H4ZM4.15 11.3H31.85L29.1 3H6.9L4.15 11.3ZM8.28825 22.3C9.06275 22.3 9.70833 22.0375 10.225 21.5125C10.7417 20.9875 11 20.35 11 19.6C11 18.8222 10.7375 18.1611 10.2125 17.6167C9.6875 17.0722 9.05 16.8 8.3 16.8C7.52223 16.8 6.86112 17.0711 6.31665 17.6133C5.77222 18.1554 5.5 18.8137 5.5 19.5883C5.5 20.3628 5.77108 21.0083 6.31325 21.525C6.85538 22.0417 7.51372 22.3 8.28825 22.3ZM27.75 22.3C28.5278 22.3 29.1889 22.0375 29.7334 21.5125C30.2778 20.9875 30.55 20.35 30.55 19.6C30.55 18.8222 30.2789 18.1611 29.7367 17.6167C29.1946 17.0722 28.5363 16.8 27.7617 16.8C26.9872 16.8 26.3417 17.0711 25.825 17.6133C25.3083 18.1554 25.05 18.8137 25.05 19.5883C25.05 20.3628 25.3125 21.0083 25.8375 21.525C26.3625 22.0417 27 22.3 27.75 22.3ZM19.8 44L8.6 38.1H16V34.3L27.4 40H19.8V44ZM3 24.8H33V14.3H3V24.8Z" fill="white"/>
</svg>
