<svg width="90" height="85" viewBox="0 0 90 85" fill="none" xmlns="http://www.w3.org/2000/svg">
<g clip-path="url(#clip0_2_8)">
<path d="M67.5 30.625V25H63.75V21.25C63.75 19.2609 62.9598 17.3532 61.5533 15.9467C60.1468 14.5402 58.2391 13.75 56.25 13.75H15C13.0109 13.75 11.1032 14.5402 9.6967 15.9467C8.29018 17.3532 7.5 19.2609 7.5 21.25V47.5C7.5 49.4891 8.29018 51.3968 9.6967 52.8033C11.1032 54.2098 13.0109 55 15 55H56.25C58.2391 55 60.1468 54.2098 61.5533 52.8033C62.9598 51.3968 63.75 49.4891 63.75 47.5V43.75H67.5V38.125H82.5V30.625H67.5ZM52.5 47.5H18.75V43.75H52.5V47.5ZM52.5 40H18.75V36.25H52.5V40ZM52.5 32.5H18.75V28.75H52.5V32.5ZM52.5 25H18.75V21.25H52.5V25ZM11.25 58.75H60V66.25H11.25V58.75Z" fill="black"/>
</g>
<defs>
<clipPath id="clip0_2_8">
<rect width="90" height="90" fill="white" transform="translate(0 -5)"/>
</clipPath>
</defs>
</svg>
