<svg width="293" height="101" viewBox="0 0 293 101" fill="none" xmlns="http://www.w3.org/2000/svg">
<path d="M113.6 14.0678C88.4 27.0011 87.6 27.2678 72.9333 29.4011C52.5333 32.4678 26.9333 37.5345 18.4 40.3345C10.9333 42.8678 5.86667 48.4678 4.4 55.6678C4 57.6678 2.8 60.0678 1.86667 60.8678C0.666667 61.9345 0 65.4011 0 71.4011C0 84.4678 2.66667 86.8678 16.8 86.2011C19.3333 86.0678 19.7333 85.1345 20.2667 77.0011C21.4667 61.2678 29.4667 50.7345 43.3333 46.7345C51.4667 44.3345 57.7333 45.0011 65.8667 49.0011C77.3333 54.8678 82.5333 64.3345 82.6667 79.8011V90.0678L153.733 89.8011L224.667 89.4011L225.467 78.7345C226.8 57.9345 238.667 45.4011 256.667 45.5345C268.267 45.6678 279.6 52.4678 284.933 62.6011L287.5 71.5L289.733 63.5345L292.667 60.7345L274 42.0678L255.333 23.4011L244.933 22.6011L234.667 21.6678L233.2 25.8011C232.4 28.0678 230.8 30.2011 229.6 30.6011C227.6 31.1345 192.667 31.9345 188.4 31.5345C187.467 31.5345 186.667 29.6678 186.667 27.4011C186.667 24.0678 186.133 23.4011 183.333 23.4011C180.8 23.4011 180 24.0678 180 26.3345C179.867 33.5345 180 33.5345 145.867 34.7345L121.733 35.5345L122.4 31.5345C122.933 27.9345 122.533 27.5345 118.533 26.7345C116 26.3345 112.667 25.8011 111.067 25.6678C105.2 25.2678 106.667 24.2011 128.933 12.0678C140.267 5.80114 143.467 3.40114 142.4 2.33447C141.467 1.40114 140.533 0.734474 140.133 0.734474C139.6 0.734474 127.733 6.73447 113.6 14.0678Z" fill="#545162"/>
<path d="M41.0668 55.4011C24.8001 64.2011 23.6001 86.2011 38.9335 96.3345C43.3335 99.2678 46.0001 100.068 52.1335 100.068C58.6668 100.068 60.5335 99.4011 64.9335 95.9345C70.5335 91.5345 76.0001 82.0678 76.0001 76.7345C76.0001 71.2678 69.8668 60.3345 64.8001 57.0011C58.2668 52.6011 47.4668 51.8011 41.0668 55.4011Z" fill="#545162"/>
<path d="M248 54.2011C243.733 55.9344 237.6 61.6678 235.2 66.3344C232.8 71.0011 232.8 82.4678 235.2 87.1344C237.733 92.0678 242.4 96.2011 248 98.6011C252.533 100.468 256 102.5 261 98L262 92.0678L258.133 96.3344L254.133 100.734H257.6C268.4 100.734 280 89.5344 280 79.2678L280.137 73.5L275.067 79.5344L273 80.5L277 81C281.4 76.3333 280.133 72.3344 279.333 69.1344C278.133 64.0678 268 54.7344 262.667 53.6678C256.8 52.4678 252 52.6011 248 54.2011Z" fill="#545162"/>
</svg>
