<svg width="318" height="104" viewBox="0 0 318 104" fill="none" xmlns="http://www.w3.org/2000/svg">
<path d="M156.267 1.53445C144.533 3.53445 133.6 7.80112 111.333 19.0011C93.0668 28.2011 88.4001 29.9345 78.6668 31.4011C42.2668 37.1345 18.0001 42.4678 12.6668 45.9345C10.6668 47.2678 7.6001 51.6678 5.6001 55.8011C3.73344 60.0678 1.6001 63.8011 0.933436 64.2011C0.26677 64.7345 -0.13323 69.2678 0.26677 74.4678C0.933436 86.8678 3.06677 89.4011 12.9334 89.4011H20.0001V82.2011C20.0001 73.8011 22.5334 65.8011 27.3334 59.5345C29.2001 57.1345 30.2668 54.7345 29.6001 54.0678C29.0668 53.4011 29.3334 53.4011 30.1334 53.8011C30.9334 54.2011 34.4001 53.1345 38.0001 51.4011C57.7334 41.4011 82.8001 56.2011 82.9334 77.9345C82.9334 81.6678 82.5334 86.7345 82.0001 89.1345L81.0668 93.4011L153.333 93.1345L225.6 92.7345L225.867 81.4011C226 71.5345 226.533 69.2678 229.733 63.6678C238.933 48.2011 258.8 43.6678 274 53.6678C282.533 59.2678 286.8 67.1345 287.867 79.1345C288.8 90.2011 288.933 90.3345 303.733 88.7345C315.067 87.5345 317.333 85.2678 317.333 75.0011C317.333 70.7345 316.8 66.7345 316.133 65.9345C315.333 65.2678 314.4 60.4678 314 55.4011C312.533 38.8678 312.133 37.5345 308.133 35.4011C304 33.2678 299.333 32.0678 276.4 27.4011C263.733 24.8678 259.867 23.4011 250.4 17.6678C244.267 13.9345 234.267 8.46779 228.133 5.53445L216.8 0.0677848L190.133 0.201118C175.333 0.334452 160.133 0.867785 156.267 1.53445ZM188.667 9.66779C188.267 11.4011 187.333 16.8678 186.667 21.9345C184.4 36.4678 185.867 35.6678 161.733 36.6011C150.133 37.1345 136.4 37.8011 131.067 38.2011L121.6 39.0011L121.733 34.6011C122 30.6011 121.6 30.0678 116.933 28.7345L111.867 27.2678L122.933 21.1345C129.067 17.8011 136.4 13.9345 139.333 12.7345C147.467 9.26779 162 7.00112 176.4 6.86779C189.2 6.73445 189.333 6.73445 188.667 9.66779ZM211.867 9.66779C214.533 11.2678 220.4 15.5345 225.067 19.2678C231.6 24.4678 233.333 26.6011 233.333 29.5345C233.333 32.7345 232.667 33.4011 229.067 33.9345C220 35.2678 194.667 35.8011 194 34.6011C193.2 33.5345 195.467 13.8011 196.8 9.00112C197.867 5.66779 205.867 6.06779 211.867 9.66779Z" fill="#545162"/>
<path d="M41.9999 57.9345C24.6666 65.8011 23.1999 90.3345 39.5999 100.068C49.1999 105.934 64.1332 102.601 70.7999 93.2678C76.2666 85.5345 75.5999 71.0011 69.4666 63.5345C63.9999 57.1345 50.2666 54.3345 41.9999 57.9345Z" fill="#545162"/>
<path d="M244.667 59.1344C237.733 63.0011 233.333 70.7344 233.333 79.1344C233.333 98.4677 254.133 110.201 269.467 99.4011C277.467 93.6677 280.267 87.9344 279.733 78.0677C278.933 64.4677 270 56.0677 256.4 56.0677C252.267 56.0677 248.133 57.1344 244.667 59.1344Z" fill="#545162"/>
</svg>
