<svg width="298" height="109" viewBox="0 0 298 109" fill="none" xmlns="http://www.w3.org/2000/svg">
<path d="M140 2.06781C126.533 4.20114 117.467 8.06781 100.933 18.6011C80.6667 31.4011 79.4667 31.8011 55.6 34.7345C32 37.6678 15.8667 40.7345 10.5333 43.5345C6.93333 45.2678 4.8 49.2678 3.33333 57.0011C2.8 59.4011 1.86667 61.4011 1.2 61.4011C0.533333 61.4011 0 66.3345 0 72.4678C0 87.1345 1.6 89.4011 11.3333 89.4011H18.5333L19.3333 84.3345C20.6667 76.3345 24.1333 69.6678 29.3333 64.8678C46.1333 49.6678 72.5333 59.1345 77.3333 82.0678L78.8 89.4011H145.467C197.733 89.4011 212 89.0011 212.133 87.6678C213.6 64.3345 235.067 50.8678 254.667 60.7345C262.4 64.6011 268.933 72.7345 270.133 79.9345C271.733 89.8011 271.333 89.4011 282 89.4011C294.133 89.4011 295.467 88.2011 296.667 77.0011C297.867 65.9345 297.2 62.3345 293.867 60.8678C291.467 59.8011 290.933 58.0678 290.267 48.3345C289.333 35.1345 289.867 35.9345 270.267 20.4678C259.333 11.8011 256 8.46781 256.267 6.33447C256.533 4.33447 255.6 3.26781 252.667 2.33447C246 0.0678072 153.467 -0.0655261 140 2.06781ZM164.8 10.6011C164.4 11.8011 163.467 17.2678 162.667 22.7345C161.867 28.2011 160.8 33.1345 160.133 33.8011C159.6 34.3345 149.6 35.4011 137.867 36.0678C107.067 37.9345 109.333 38.0678 109.333 33.4011C109.333 30.2011 108.667 29.2678 105.733 28.6011C103.6 28.2011 101.467 27.6678 100.667 27.5345C98.8 27.0011 115.2 16.3345 123.733 12.4678C129.867 9.66781 134.267 8.86781 146.667 8.20114C163.867 7.26781 165.733 7.53447 164.8 10.6011ZM203.333 9.53447C209.867 11.1345 211.333 13.8011 212.8 26.2011L213.6 33.1345L207.2 33.6678C190.4 35.1345 169.333 34.8678 169.333 33.2678C169.333 32.3345 170 26.3345 170.8 19.8011L172.4 8.06781H184.933C191.867 8.06781 200.133 8.73447 203.333 9.53447Z" fill="#545162"/>
<path d="M40.9334 65.9344C34.5334 68.3344 31.4667 71.0011 28.8 76.7344C23.4667 87.8011 28.4 101.401 39.4667 106.734C58 115.801 77.4667 95.5344 68.4 76.4678C64 67.0011 51.2 62.2011 40.9334 65.9344Z" fill="#545162"/>
<path d="M232.133 67.0011C223.067 71.6678 220.667 75.8011 220.667 86.4678C220.667 94.2011 221.2 96.0678 224.4 100.334C234.667 113.668 255.733 110.734 262.133 95.1344C270 76.4678 250 57.6678 232.133 67.0011Z" fill="#545162"/>
</svg>
