<svg width="298" height="103" viewBox="0 0 298 103" fill="none" xmlns="http://www.w3.org/2000/svg">
<path d="M159.067 0.734497C143.333 2.7345 119.6 12.0678 99.9999 24.0678C92.9332 28.4678 89.1999 29.5345 67.9999 33.4012C13.0665 43.6678 11.9999 44.0678 5.99987 56.6012C4.26654 60.3345 2.39987 63.4012 1.73321 63.4012C0.133207 63.4012 0.399874 80.2012 2.26654 84.0678C3.99987 87.9345 7.33321 89.1345 14.7999 88.4678L19.9999 88.0678L20.9332 79.0012C21.5999 74.0678 23.1999 67.6678 24.6665 64.7345C33.9999 46.4678 57.1999 41.8012 72.7999 55.2678C80.6665 61.9345 83.3332 68.4678 83.3332 81.6678V92.7345H146.933H210.533L214.533 89.0012L218.667 85.4012L215.333 89.1345L210.533 92.7345L215.333 92.4678C218.533 92.0678 218.667 91.5345 219.467 80.7345C220.267 69.0012 221.333 65.9345 227.067 58.2012C231.333 52.6012 242.133 47.4012 250 47.4012C251.392 47.4012 254 47.4012 254 47.4012L259 48.5C259 48.5 259.362 47.7524 259.992 46.5876C261.402 43.981 264.154 39.285 267.2 36.2012C277.333 26.0678 278.267 24.6012 276.533 22.6012C274.8 20.4678 274.933 20.4678 277.6 22.2012C280.8 24.2012 282.933 27.6678 280.267 26.6012C279.042 26.1561 264.12 41.15 259.992 46.5876C259.174 47.6653 258.779 48.3677 259 48.5C259 48.5 261.6 49.5345 265.067 51.2678C276.133 56.8678 281.867 67.0012 282 81.0012V88.7345H286.533C293.333 88.7345 296.533 85.2678 297.6 77.0012C298.133 71.8012 297.867 69.4012 296.4 67.6678C295.333 66.4678 293.333 58.8678 292 50.8678C290 39.6678 288.8 35.4012 286.133 32.2012C283.333 28.7345 282.967 27.8667 285.5 30C288.967 32.9333 289.6 31.9345 286.533 27.6678C284.8 25.1345 277.6 20.3345 275.333 20.0678C274.933 20.0678 272.8 18.7345 270.533 17.1345C268.267 15.5345 261.467 11.8012 255.467 8.86783C246.933 4.73449 242.267 3.40116 234.267 2.7345C228.667 2.20116 222.8 1.5345 221.333 1.26783C215.333 0.0678298 167.333 -0.33217 159.067 0.734497ZM182.533 11.0012C182.133 13.8012 181.067 20.2012 180.267 25.4012L178.667 34.7345L164.667 35.5345C156.933 36.0678 144.533 36.7345 137.067 37.1345L123.467 37.9345L123.067 33.6678C122.667 29.9345 122 29.4012 116.933 28.0678C110.533 26.6012 110.267 27.0012 123.6 19.6678C140.267 10.3345 154.933 6.3345 172.4 6.20116L183.333 6.06783L182.533 11.0012ZM222 7.40116C230.4 8.73449 230.933 9.00116 239.733 18.2012C244.8 23.5345 248.667 28.7345 248.4 29.9345C248 31.8012 243.6 32.3345 218.267 33.9345C202 34.8678 188.267 35.5345 188 35.1345C187.333 34.4678 189.467 14.7345 190.667 9.00116C191.333 6.20116 192 6.06783 202.4 6.06783C208.4 6.06783 217.2 6.73449 222 7.40116Z" fill="#545162"/>
<path d="M267.2 36.2012C277.333 26.0678 278.267 24.6012 276.533 22.6012C274.8 20.4678 274.933 20.4678 277.6 22.2012C280.8 24.2012 282.933 27.6678 280.267 26.6012C279.042 26.1561 264.12 41.15 259.992 46.5876C261.402 43.981 264.154 39.285 267.2 36.2012Z" fill="#545162"/>
<path d="M210.533 92.7345L214.533 89.0012L218.667 85.4012L215.333 89.1345L210.533 92.7345Z" fill="#545162"/>
<path d="M50.6668 55.0011C43.4668 56.3344 41.6001 57.1344 36.6668 61.5344C24.4001 72.7344 27.3335 92.4677 42.4001 100.201C48.9335 103.668 58.9335 102.868 65.2001 98.4677C72.8001 93.1344 76.0001 87.0011 76.0001 77.9344C76.0001 71.8011 75.3335 69.5344 72.2668 65.5344C66.4001 57.8011 58.0001 53.8011 50.6668 55.0011Z" fill="#545162"/>
<path d="M238 66.6011C229.925 74.7624 226.72 78.7723 226.96 83.0531C227.093 85.4163 228.275 87.8621 230.267 91.1345C234.8 98.4678 241.467 102.068 250.4 102.068C264.267 102.068 274 92.4678 274 78.7345C274 67.0011 265.6 56.8678 254.8 55.8011C249.467 55.2678 249.067 55.4011 238 66.6011Z" fill="#545162"/>
<path d="M238 66.6011C229.925 74.7624 226.72 78.7723 226.96 83.0531C225.534 76.2967 227.445 69.4113 233.5 63C241.056 55 249.467 55.2678 254.8 55.8011C249.467 55.2678 249.067 55.4011 238 66.6011Z" fill="#545162"/>
</svg>
