<svg width="215" height="121" viewBox="0 0 215 121" fill="none" xmlns="http://www.w3.org/2000/svg">
<path d="M92.8001 1.33439C78.9334 3.06772 66.9334 10.2677 33.8667 36.4011C7.60008 57.2011 1.73341 64.6677 3.20008 75.2011C3.60008 78.9344 3.33341 81.0677 2.40008 81.3344C1.46675 81.7344 0.800081 86.2677 0.800081 94.1344L0.666748 106.401H6.13341H11.7334L12.2667 96.6677C12.8001 84.1344 17.6001 75.7344 27.3334 69.7344C32.9334 66.2677 35.0667 65.7344 43.3334 65.7344C51.6001 65.7344 53.7334 66.2677 59.4668 69.7344C63.4668 72.2677 67.4668 76.2677 70.0001 80.2677C73.6001 86.2677 74.0001 87.8677 74.0001 98.6677V110.401L106.667 110.134L139.333 109.734L140.133 98.2677C141.067 85.2011 144.133 78.5344 152.533 71.8677C166.8 60.5344 188.133 64.4011 197.867 80.2677C201.067 85.4677 202 88.6677 202.667 96.9344C203.333 106.801 203.467 107.068 206.667 106.668C208.533 106.401 210.533 105.734 211.067 105.068C212.8 103.468 214.667 94.4011 214.667 86.6677C214.667 80.1344 214.4 79.7344 211.467 79.7344C208.533 79.7344 208.133 79.0677 207.467 74.0011C203.6 41.3344 202.133 36.4011 190.667 19.0677C186.267 12.4011 182.667 5.73439 182.667 4.13439C182.667 1.73439 181.6 1.20106 175.067 0.53439C165.2 -0.532277 103.2 0.13439 92.8001 1.33439ZM172.8 10.1344C180.533 14.2677 194.667 35.7344 192.8 40.4011C192.267 42.0011 189.6 42.4011 180.133 42.4011C169.733 42.4011 167.733 42.0011 165.6 39.7344C162.4 36.2677 154.133 8.80106 156 7.73439C157.867 6.53439 169.333 8.26772 172.8 10.1344ZM147.733 16.2677C151.2 25.0677 153.467 36.8011 152.4 40.8011C151.6 43.8677 146.933 44.2677 95.4668 45.8677L68.9334 46.6677L69.8668 43.3344C70.8001 39.3344 68.6668 37.2011 62.8001 36.6677C60.5334 36.4011 58.6668 35.6011 58.8001 34.9344C59.3334 32.5344 75.2001 15.6011 79.7334 12.8011C86.8001 8.40106 90.8001 8.00106 118.667 8.13439L144.667 8.40106L147.733 16.2677Z" fill="#545162"/>
<path d="M31.7334 75.7344C23.6001 80.1344 20.6667 85.6011 20.6667 96.4011C20.6667 104.001 21.2001 106.534 23.7334 110.134C30.6667 119.734 44.4001 122.668 54.6667 116.934C62.8001 112.401 65.7334 107.868 66.4001 98.6677C67.0668 89.3344 63.7334 81.7344 57.0667 76.9344C51.0667 72.5344 38.5334 72.0011 31.7334 75.7344Z" fill="#545162"/>
<path d="M159.733 75.7344C152.533 79.601 148.933 85.4677 148.267 94.5344C147.6 104.001 150.533 110.668 157.467 115.334C168.267 122.401 179.467 121.601 188.133 112.934C199.333 101.734 196.133 81.8677 182.267 75.201C176 72.2677 165.867 72.5344 159.733 75.7344Z" fill="#545162"/>
</svg>
