<svg width="322" height="124" viewBox="0 0 322 124" fill="none" xmlns="http://www.w3.org/2000/svg">
<path d="M176.333 1.06781C135.667 1.73447 132.467 2.00114 124.467 4.80114C112.867 8.93448 100.067 15.6011 80.6 27.3345C70.4667 33.4678 58.8667 39.0678 49.9334 42.2678C17.4 54.0011 13.5334 55.8678 10.8667 60.2678C9.53337 62.5345 7.40004 67.7345 6.20004 71.7345C5.13337 75.7345 3.2667 79.7345 2.0667 80.6678C0.333371 82.0011 0.0667039 84.2678 0.600037 92.2678C1.40004 104.668 3.6667 108.534 10.8667 109.734C20.2 111.334 21.6667 110.001 21.6667 100.934C21.6667 82.5345 34.4667 69.2011 52.4667 69.0678C72.0667 69.0678 87 86.5345 83.2667 105.468C82.4667 109.201 82.3334 112.801 82.8667 113.468C83.4 114.001 116.467 114.268 156.467 114.134L229 113.734L228.6 103.601C228.067 92.0011 229.667 86.8011 236.467 79.0678C242.333 72.4011 249.8 69.0678 259.133 69.0678C277.267 69.0678 292.867 85.6011 290.6 102.534C289.667 110.001 290.733 110.801 300.467 109.734C316.067 108.134 318.733 106.934 320.333 101.334C322.333 93.7345 322.067 84.1345 319.667 83.2011C318.333 82.6678 317.667 80.5345 317.667 76.5345C317.667 63.7345 314.067 51.2011 305.267 33.3345C300.467 23.8678 295.133 14.0011 293.267 11.4678C291.4 9.06781 289.667 5.60114 289.4 3.73448L289 0.401142L254.333 0.267808C235.267 0.267808 200.2 0.534475 176.333 1.06781ZM218.067 9.46781C220.067 10.9345 220.333 13.2011 220.067 26.4011L219.667 41.7345L193.267 42.9345C178.733 43.6011 166.6 43.7345 166.2 43.4678C165.667 42.8011 167.267 26.1345 169.133 14.1345L169.933 9.20114L189.4 8.66781C200.2 8.53448 210.6 8.13448 212.467 8.00114C214.333 7.86781 216.867 8.53448 218.067 9.46781ZM160.867 14.0011C160.467 16.8011 159.4 24.4011 158.6 31.0678L157 43.0678L145.667 43.8678C139.4 44.4011 125.8 45.2011 115.4 45.7345L96.3334 46.6678L97.2667 42.4011C98.2 37.4678 96.4667 35.7345 90.7334 35.7345C88.6 35.7345 87 35.3345 87 34.6678C87 33.2011 102.333 23.2011 112.333 18.2678C126.333 11.2011 134.333 9.20114 148.733 9.20114L161.667 9.06781L160.867 14.0011ZM261 12.2678C265.4 13.8678 270.333 17.2011 275.4 22.1345C284.6 31.0678 287.8 36.1345 285.267 38.1345C283.667 39.3345 231.133 42.6678 229.533 41.6011C228.2 40.8011 226.467 13.6011 227.533 10.9345C228.2 9.06781 230.2 8.80114 241.4 9.33448C248.6 9.73448 257.267 11.0678 261 12.2678Z" fill="#545162"/>
<path d="M45.1334 77.7344C25 85.0678 23.1334 111.601 42.0667 121.201C58.0667 129.468 77.2667 116.668 75.9334 98.8011C74.7334 82.9344 59.5334 72.4011 45.1334 77.7344Z" fill="#545162"/>
<path d="M250.333 78.1344C231.8 86.8011 230.733 112.001 248.333 121.068C264.333 129.201 283.133 117.868 283 100.001C282.867 83.3344 265 71.3344 250.333 78.1344Z" fill="#545162"/>
</svg>
