<svg width="329" height="124" viewBox="0 0 329 124" fill="none" xmlns="http://www.w3.org/2000/svg">
<path d="M111.333 2.86777C108 4.33443 102.667 7.8011 99.3333 10.6011C96 13.4011 88.4 19.5344 82.4 24.3344C71.7333 32.8678 71.4667 33.0011 61.3333 33.8011C49.0667 34.8678 22.9333 39.2678 12.8 42.0678C2 44.8678 1.46667 45.9344 0.666667 62.2011L0 76.2011L7.46667 83.5344L14.9333 90.8678L16.5333 85.4011C21.8667 67.4011 44.5333 58.4678 62.5333 67.2678C71.4667 71.6678 76.1333 77.2678 80 88.4678L82.8 96.7344L95.3333 97.4011C102.267 97.8011 134.133 98.2011 166 98.0678H223.867L225.067 94.0678C230.133 77.1344 233.467 72.3344 243.733 67.1344C257.2 60.3344 274.267 63.6678 283.867 74.8678C288.133 79.8011 292.667 90.8678 292.667 96.2011C292.667 98.4678 293.733 98.7344 302.667 98.7344C317.333 98.7344 325.867 96.6011 327.467 92.4678C329.6 86.7344 328.933 75.9344 326.4 73.9344C324.4 72.6011 323.867 69.5344 323.333 56.3344C322.933 45.8011 322 39.8011 320.8 38.3344C319.2 36.3344 312.267 36.0678 253.467 35.8011L188 35.4011L185.6 21.0011C184.267 13.1344 182.667 5.13443 182 3.4011L180.667 0.0677643H149.067C120 0.0677643 116.8 0.334434 111.333 2.86777ZM153.467 9.66776C153.067 12.0678 152.133 18.6011 151.333 24.0678C150.533 29.5344 149.467 34.4678 148.933 35.0011C148.4 35.5344 136.8 36.0678 123.067 36.3344C100 36.7344 98.1333 36.6011 98.8 34.4678C99.6 31.9344 95.8667 29.4011 91.3333 29.4011C89.2 29.4011 90.8 27.4011 98.1333 20.3344C112 7.26777 116.267 5.53443 137.067 5.53443L154.133 5.4011L153.467 9.66776ZM172.667 11.6678C172.667 15.2678 173.067 22.0678 173.6 27.0011L174.4 36.0678H166H157.733L158.533 29.0011C158.933 25.2678 159.733 18.3344 160.133 13.6678L161.067 5.4011H166.8H172.667V11.6678Z" fill="#545162"/>
<path d="M35.7334 73.5344C29.6 76.6011 23.8667 83.8011 21.8667 91.4011C21.8667 91.4011 21 94 21 97.5C21 101 21.2334 101.5 21.8667 105C22.5 108.5 29 117.5 29 117.5C37.5 125 48.2667 123.934 51.7334 123.268C68.9334 120.334 78.6667 101.801 71.4667 86.0677C65.2 72.6011 49.0667 66.8677 35.7334 73.5344Z" fill="#545162"/>
<path d="M248 72.4678C242.133 75.1344 234.267 84.4678 233.2 90.0678C230.667 103.668 236.133 115.001 248 120.734C256.933 125.134 263.333 124.734 272.4 119.134C281.2 113.801 285.067 105.934 284.4 95.1344C283.867 85.9344 281.733 82.2011 273.467 75.5344C269.467 72.2011 267.2 71.4011 260.267 71.1344C255.333 70.8678 250.4 71.4011 248 72.4678Z" fill="#545162"/>
</svg>
