<svg width="322" height="102" viewBox="0 0 322 102" fill="none" xmlns="http://www.w3.org/2000/svg">
<path d="M161 1.33442C143.8 4.00109 137.533 6.40109 107 21.6011C91.2667 29.6011 87.6667 30.8011 79 31.6011C64.3334 33.0678 23.6667 41.3344 16.8667 44.2678C10.8667 46.9344 6.4667 52.5344 5.00004 59.2011C4.4667 61.2011 3.2667 63.2011 2.20004 63.6011C-0.0666289 64.4011 -0.333296 74.5344 1.6667 82.0011C3.40004 88.1344 6.60004 90.0011 14.7334 89.4678L21 89.0678L21.8 79.0678C22.2 73.6011 23.5334 67.2011 24.6 64.9344C27.8 58.9344 36.7334 51.4678 42.6 49.8678C65.8 43.3344 85.5334 60.4011 84.0667 85.4678L83.6667 93.0678L153 93.4678C191.133 93.6011 223.667 93.4678 225.4 93.0678C228.067 92.4011 228.333 91.6011 228.333 83.3344C228.333 70.4011 230.333 64.9344 237.4 57.8678C258.467 36.9344 291 52.4011 291 83.3344V89.7344H298.067C307.4 89.6011 316.2 87.7344 318.6 85.4678C321.4 82.5344 322.6 68.4011 320.067 66.5344C318.733 65.4678 317.8 61.2011 317.133 52.1344C316.733 44.9344 315.933 38.2678 315.533 37.0678C314.2 33.7344 307.933 31.2011 294.6 28.2678C285.267 26.2678 277.667 23.3344 262.333 15.7344C233.4 1.33442 234.467 1.46776 197 1.06776C179.4 0.80109 163.267 0.934423 161 1.33442ZM182.467 10.6678C181.933 12.8011 181.133 18.8011 180.467 24.2678C179.8 29.6011 178.733 34.5344 178.067 35.0678C177.533 35.6011 167.4 36.5344 155.667 37.0678C120.733 38.6678 123 38.8011 123.8 35.6011C124.6 32.4011 120.2 28.4011 115.8 28.4011C107.267 28.4011 139.267 11.2011 153 8.40109C155.933 7.86776 163.933 7.33442 170.733 7.20109L183.267 7.06776L182.467 10.6678ZM230.067 9.73442C234.067 11.6011 234.2 12.5344 232.867 25.4678C231.8 35.2011 233.533 34.5344 205.267 35.7344L186.733 36.4011L187.533 31.4678C187.933 28.6678 188.6 23.3344 189.133 19.7344C191 6.13442 189.933 6.66776 209.4 7.33442C219.533 7.73442 227.8 8.66776 230.067 9.73442ZM245.4 16.9344C254.733 21.7344 255.933 23.4678 253.267 29.0678C251.133 33.6011 250.867 33.7344 242.867 33.7344H234.733L235.533 29.6011C235.933 27.3344 236.333 22.8011 236.333 19.6011C236.333 16.4011 237 13.7344 237.667 13.7344C238.467 13.7344 241.933 15.2011 245.4 16.9344Z" fill="#545162"/>
<path d="M47.4001 56.4011C28.6001 60.8011 22.6001 83.4678 36.4667 96.6678C41.6667 101.601 41.9334 101.734 52.3334 101.734C62.7334 101.734 63.1334 101.601 68.2001 96.9344C74.4667 91.4678 76.8667 85.0678 75.9334 77.0678C74.4667 63.0678 60.7334 53.2011 47.4001 56.4011Z" fill="#545162"/>
<path d="M247.533 58.9344C235.267 66.4011 231.933 82.0011 240.333 93.6011C244.6 99.7344 249.533 101.734 260.2 101.734C269.133 101.734 269.933 101.468 274.867 96.9344C277.8 94.4011 280.867 90.1344 281.8 87.4678C285.267 76.9344 279.8 63.0678 270.6 58.6678C264.2 55.6011 252.733 55.7344 247.533 58.9344Z" fill="#545162"/>
</svg>
