<svg width="323" height="83" viewBox="0 0 323 83" fill="none" xmlns="http://www.w3.org/2000/svg">
<path d="M182.067 1.06773C167.4 2.66773 154.2 6.00107 142.333 10.9344C123.133 19.0677 111 24.6677 111.667 25.3344C112.067 25.7344 108.867 25.6011 104.733 25.2011C100.467 24.8011 85.9333 24.5344 72.3333 24.5344C51.1333 24.5344 46.1999 24.9344 36.9999 27.4677C16.1999 33.3344 0.333252 43.0677 0.333252 50.1344C0.333252 60.8011 17.9333 75.2011 27.3999 72.2677C29.6666 71.6011 29.7999 70.5344 28.9999 64.2677C25.2666 34.4011 59.2666 16.2677 81.7999 36.0011C89.3999 42.6677 93.5333 57.3344 90.8666 68.9344C90.3333 71.6011 90.3333 74.2677 90.8666 74.8011C92.0666 76.0011 230.6 76.1344 232.467 74.9344C233.133 74.5344 233.667 69.0677 233.667 62.6677C233.667 48.6677 236.2 42.4011 244.2 35.6011C256.467 24.9344 274.467 25.3344 285.933 36.4011C293.133 43.3344 295.533 49.4677 295.533 60.8011C295.667 71.4677 297 73.4677 303 72.2677C321.267 68.2677 325.133 62.5344 318.333 49.6011C314.067 41.7344 314.2 39.6011 318.6 34.2677L322.2 30.0011L319.133 27.6011C315.8 24.8011 291 16.6677 267.667 10.4011C238.867 2.66773 202.6 -1.19894 182.067 1.06773ZM204.867 8.00107C204.467 9.7344 202.2 15.0677 199.933 20.0011C196.467 28.1344 195.4 29.2011 191.133 30.2677C183.933 32.1344 156.2 33.4677 147.667 32.4011C140.2 31.4677 140.2 31.4677 141 27.6011C141.933 23.4677 141.533 23.2011 134.333 23.7344C129.4 24.0011 130.6 22.6677 140.333 17.4677C155.4 9.3344 172.467 5.3344 192.067 5.20106C205.8 5.06773 205.8 5.06773 204.867 8.00107ZM223.667 7.86773C226.6 8.66773 230.067 10.2677 231.4 11.4677C233.667 13.4677 233.533 13.7344 230.067 17.4677C226.067 21.6011 211.933 29.0677 207.933 29.0677C206.067 29.0677 205.8 28.2677 206.467 25.3344C209.267 12.6677 212.467 6.40106 216.067 6.40106C217.267 6.40106 220.733 7.06773 223.667 7.86773Z" fill="#545162"/>
<path d="M54.7333 35.7344C45 38.6678 38.4666 45.8678 36.8666 55.2011C34.4666 70.4011 47 83.3344 62.4666 82.1344C79 80.8011 88.7333 63.6011 81.8 48.2678C79 42.0011 73.9333 38.0011 66.3333 35.8678C60.3333 34.2678 59.6666 34.2678 54.7333 35.7344Z" fill="#545162"/>
<path d="M259.667 35.6011C247.133 38.8011 239.4 50.1344 241.667 61.8677C243.133 69.8677 245.667 74.0011 251.133 77.8677C261.267 84.8011 274.067 83.4677 282.2 74.4011C287.267 68.8011 289 62.5344 287.933 54.2677C286.333 41.7344 272.067 32.4011 259.667 35.6011Z" fill="#545162"/>
</svg>
