<svg width="299" height="117" viewBox="0 0 299 117" fill="none" xmlns="http://www.w3.org/2000/svg">
<path d="M136.533 2.20114C123.2 2.86781 115.733 3.80114 112.933 5.26781C110.8 6.33447 103.067 13.2678 95.7334 20.7345C88.1334 28.3345 81.3334 34.0678 79.8667 34.0678C66.8 34.2011 14.9333 42.0678 9.86668 44.8678C7.20002 46.2011 4.66668 53.8011 4.66668 60.2011C4.66668 62.7345 3.86668 64.7345 2.66668 65.1345C1.20002 65.8011 0.800015 68.6011 1.06668 78.6011C1.20002 85.9345 2.00002 91.9345 2.80002 92.7345C4.80002 94.7345 14.2667 95.9345 18.5333 94.8678C21.4667 94.2011 22 93.2678 22 89.2678C22 79.1345 29.4667 67.9345 39.7334 62.7345C59.0667 53.1345 82.5334 65.2678 85.3334 86.3345C85.8667 90.2011 87.0667 93.8011 87.8667 94.3345C88.6667 94.8678 118.533 95.4011 154.267 95.4011C225.867 95.4011 223.333 95.6678 223.333 87.0011C223.333 77.1345 233.867 64.0678 244.533 61.0011C256.8 57.2678 270.667 61.1345 278.933 70.4678C282.933 75.0011 284.267 78.2011 287.067 90.0678C288.133 94.2011 288.667 94.7345 292 94.4678C294.133 94.3345 296.267 93.6678 296.8 93.1345C297.333 92.6011 298 86.3345 298.267 79.4011C298.667 67.4011 298.533 66.7345 295.733 65.4011C293.733 64.6011 292.667 63.0011 292.667 60.7345C292.667 53.5345 286.933 33.9345 280.4 18.7345C276.533 9.93447 272.8 2.33447 272.133 1.80114C270.267 0.467805 162.267 0.867805 136.533 2.20114ZM163.333 8.06781C163.333 12.2011 158.8 35.0011 157.867 36.0678C157.067 36.8678 146 37.5345 132.133 37.8011L107.6 38.3345L108.267 35.0011C108.933 31.4011 107.6 30.0678 101.733 28.8678L98 28.0678L102 23.1345C104.267 20.4678 108.4 16.3345 111.467 13.9345C116.533 9.93447 117.733 9.66781 131.067 8.73447C149.733 7.53447 163.333 7.26781 163.333 8.06781ZM213.733 9.13447C215.467 11.1345 220.667 29.5345 220.667 33.5345C220.667 35.8011 219.6 36.6011 215.733 37.2678C208 38.4678 168.933 38.2011 168.133 36.8678C167.067 35.2678 170 12.6011 171.467 9.66781C172.667 7.66781 175.067 7.40114 192.533 7.40114C206.933 7.40114 212.667 7.80114 213.733 9.13447ZM273.067 14.3345C279.067 27.1345 281.467 35.1345 279.733 36.8678C278.533 38.0678 273.2 38.0678 259.067 37.2678L240 36.0678L236.667 29.4011C234.8 25.6678 232.133 19.9345 230.8 16.4678C229.2 12.8678 227.6 10.6011 226.8 11.0011C226 11.5345 226.133 10.8678 227.2 9.66781C228.8 7.66781 231.867 7.40114 249.333 7.40114H269.867L273.067 14.3345Z" fill="#545162"/>
<path d="M44.0001 67.9344C34.8001 71.9344 28.6667 81.5344 28.6667 92.0677C28.6667 98.4677 34.0001 107.534 40.4001 111.934C50.9334 119.401 66.2668 116.601 74.0001 105.801C86.1334 89.001 74.4001 65.9344 53.7334 66.0677C50.5334 66.201 46.1334 67.001 44.0001 67.9344Z" fill="#545162"/>
<path d="M246.267 67.4011C236.133 71.5345 230 80.3345 230 90.6011C230 99.1345 232.667 104.734 239.2 110.334C256.267 125.001 281.2 110.601 279.067 87.5345C277.6 72.4678 260.267 61.8011 246.267 67.4011Z" fill="#545162"/>
</svg>
